<svg width="18" height="16" viewBox="0 0 18 16" fill="none" xmlns="http://www.w3.org/2000/svg">
<path d="M17.0273 3.53906C16.7655 2.93288 16.3881 2.38357 15.916 1.92187C15.4436 1.4588 14.8866 1.0908 14.2754 0.837889C13.6416 0.574594 12.9617 0.439825 12.2754 0.441405C11.3125 0.441405 10.373 0.705076 9.55664 1.20312C9.36133 1.32226 9.17578 1.45312 9 1.5957C8.82422 1.45312 8.63867 1.32226 8.44336 1.20312C7.62695 0.705076 6.6875 0.441405 5.72461 0.441405C5.03125 0.441405 4.35938 0.574217 3.72461 0.837889C3.11133 1.09179 2.55859 1.45703 2.08398 1.92187C1.61132 2.38305 1.23375 2.93249 0.972656 3.53906C0.701172 4.16991 0.5625 4.83984 0.5625 5.52929C0.5625 6.17968 0.695313 6.85741 0.958984 7.54686C1.17969 8.12303 1.49609 8.72069 1.90039 9.3242C2.54102 10.2793 3.42188 11.2754 4.51562 12.2851C6.32812 13.959 8.12305 15.1152 8.19922 15.1621L8.66211 15.459C8.86719 15.5898 9.13086 15.5898 9.33594 15.459L9.79883 15.1621C9.875 15.1133 11.668 13.959 13.4824 12.2851C14.5762 11.2754 15.457 10.2793 16.0977 9.3242C16.502 8.72069 16.8203 8.12303 17.0391 7.54686C17.3027 6.85741 17.4355 6.17968 17.4355 5.52929C17.4375 4.83984 17.2988 4.16991 17.0273 3.53906Z" fill="#5E49FF"/>
</svg>
