<svg width="18" height="16" viewBox="0 0 18 16" fill="none" xmlns="http://www.w3.org/2000/svg">
<path d="M17.0273 3.53907C16.7655 2.93289 16.3881 2.38358 15.916 1.92189C15.4436 1.45881 14.8866 1.09082 14.2754 0.837904C13.6416 0.574609 12.9617 0.43984 12.2754 0.44142C11.3125 0.44142 10.373 0.705091 9.55664 1.20314C9.36133 1.32228 9.17578 1.45314 9 1.59572C8.82422 1.45314 8.63867 1.32228 8.44336 1.20314C7.62695 0.705091 6.6875 0.44142 5.72461 0.44142C5.03125 0.44142 4.35938 0.574232 3.72461 0.837904C3.11133 1.09181 2.55859 1.45704 2.08398 1.92189C1.61132 2.38306 1.23375 2.9325 0.972656 3.53907C0.701172 4.16993 0.5625 4.83985 0.5625 5.5293C0.5625 6.17969 0.695313 6.85743 0.958984 7.54688C1.17969 8.12305 1.49609 8.7207 1.90039 9.32422C2.54102 10.2793 3.42188 11.2754 4.51562 12.2852C6.32812 13.959 8.12305 15.1152 8.19922 15.1621L8.66211 15.459C8.86719 15.5898 9.13086 15.5898 9.33594 15.459L9.79883 15.1621C9.875 15.1133 11.668 13.959 13.4824 12.2852C14.5762 11.2754 15.457 10.2793 16.0977 9.32422C16.502 8.7207 16.8203 8.12305 17.0391 7.54688C17.3027 6.85743 17.4355 6.17969 17.4355 5.5293C17.4375 4.83985 17.2988 4.16993 17.0273 3.53907ZM9 13.9141C9 13.9141 2.04688 9.45898 2.04688 5.5293C2.04688 3.53907 3.69336 1.92579 5.72461 1.92579C7.15234 1.92579 8.39062 2.72267 9 3.88673C9.60938 2.72267 10.8477 1.92579 12.2754 1.92579C14.3066 1.92579 15.9531 3.53907 15.9531 5.5293C15.9531 9.45898 9 13.9141 9 13.9141Z" fill="#4D4C4D"/>
</svg>
